<?xml version="1.0" encoding="UTF-8" standalone="no"?>
<!-- Created with Inkscape (http://www.inkscape.org/) -->

<svg
   width="210mm"
   height="297mm"
   viewBox="0 0 210 297"
   version="1.1"
   id="svg1"
   xml:space="preserve"
   inkscape:version="1.3 (0e150ed6c4, 2023-07-21)"
   sodipodi:docname="icons.svg"
   xmlns:inkscape="http://www.inkscape.org/namespaces/inkscape"
   xmlns:sodipodi="http://sodipodi.sourceforge.net/DTD/sodipodi-0.dtd"
   xmlns:xlink="http://www.w3.org/1999/xlink"
   xmlns="http://www.w3.org/2000/svg"
   xmlns:svg="http://www.w3.org/2000/svg"><sodipodi:namedview
     id="namedview1"
     pagecolor="#ffffff"
     bordercolor="#000000"
     borderopacity="0.25"
     inkscape:showpageshadow="2"
     inkscape:pageopacity="0.0"
     inkscape:pagecheckerboard="0"
     inkscape:deskcolor="#d1d1d1"
     inkscape:document-units="mm"
     showgrid="true"
     inkscape:zoom="1.0162818"
     inkscape:cx="273.54619"
     inkscape:cy="596.78332"
     inkscape:window-width="2560"
     inkscape:window-height="1494"
     inkscape:window-x="-11"
     inkscape:window-y="-11"
     inkscape:window-maximized="1"
     inkscape:current-layer="layer1"><inkscape:grid
       id="grid4"
       units="mm"
       originx="0"
       originy="0"
       spacingx="0.99999998"
       spacingy="1"
       empcolor="#0099e5"
       empopacity="0.30196078"
       color="#0099e5"
       opacity="0.14901961"
       empspacing="5"
       dotted="false"
       gridanglex="30"
       gridanglez="30"
       visible="true" /></sodipodi:namedview><defs
     id="defs1"><linearGradient
       id="linearGradient11"
       inkscape:collect="always"><stop
         style="stop-color:#04fbff;stop-opacity:0.94574773;"
         offset="0"
         id="stop10" /><stop
         style="stop-color:#b0fffa;stop-opacity:0;"
         offset="1"
         id="stop11" /></linearGradient><linearGradient
       id="linearGradient9"
       inkscape:collect="always"><stop
         style="stop-color:#00ac0e;stop-opacity:0.94574773;"
         offset="0"
         id="stop8" /><stop
         style="stop-color:#b0ffbb;stop-opacity:0;"
         offset="1"
         id="stop9" /></linearGradient><linearGradient
       id="linearGradient6"
       inkscape:collect="always"><stop
         style="stop-color:#ff0f0f;stop-opacity:0.94574776;"
         offset="0"
         id="stop6" /><stop
         style="stop-color:#ff0f0f;stop-opacity:0;"
         offset="1"
         id="stop7" /></linearGradient><linearGradient
       inkscape:collect="always"
       xlink:href="#linearGradient6"
       id="linearGradient7"
       x1="93.214348"
       y1="77.883186"
       x2="93.214348"
       y2="113.54619"
       gradientUnits="userSpaceOnUse" /><linearGradient
       inkscape:collect="always"
       xlink:href="#linearGradient9"
       id="linearGradient8"
       gradientUnits="userSpaceOnUse"
       x1="93.214348"
       y1="77.883186"
       x2="93.214348"
       y2="113.54619"
       gradientTransform="translate(52.462187,-0.43447501)" /><linearGradient
       inkscape:collect="always"
       xlink:href="#linearGradient11"
       id="linearGradient10"
       gradientUnits="userSpaceOnUse"
       gradientTransform="translate(89.916588,-0.57939439)"
       x1="93.214348"
       y1="77.883186"
       x2="93.214348"
       y2="113.54619" /><linearGradient
       inkscape:collect="always"
       xlink:href="#linearGradient6"
       id="linearGradient12"
       gradientUnits="userSpaceOnUse"
       x1="93.214348"
       y1="77.883186"
       x2="93.214348"
       y2="113.54619" /></defs><g
     inkscape:label="Calque 1"
     inkscape:groupmode="layer"
     id="layer1"><path
       id="path5"
       style="fill:url(#linearGradient7);stroke:#000000;stroke-width:3;stroke-dasharray:none;stroke-opacity:1"
       d="m 93.14987,59.285787 c -8.153442,2.15e-4 -14.762994,6.609998 -14.762923,14.76344 1.43e-4,5.435768 2.940285,10.182169 7.314799,12.744442 l 7.452258,27.142011 7.546306,-27.200406 c 4.3188,-2.575871 7.21286,-7.29211 7.213,-12.686047 7e-5,-8.153644 -6.6098,-14.763511 -14.76344,-14.76344 z m 0,3.873665 c 6.01434,-2.04e-4 10.88998,4.875435 10.88977,10.889775 -5e-5,3.513896 -1.66445,6.639029 -4.24788,8.630092 -1.838185,1.416701 -4.141647,2.259251 -6.64189,2.259166 C 87.135931,84.938407 82.26069,80.063166 82.260612,74.049227 82.260405,68.035086 87.135729,63.15953 93.14987,63.159452 Z"
       sodipodi:nodetypes="cccccccccsccc"
       inkscape:export-filename="guess_marker.png"
       inkscape:export-xdpi="96"
       inkscape:export-ydpi="96" /><path
       id="path5-4"
       style="fill:url(#linearGradient8);stroke:#000000;stroke-width:0.499999;stroke-dasharray:none;stroke-opacity:1"
       d="m 145.61205,58.851312 c -8.15344,2.15e-4 -14.76299,6.609998 -14.76292,14.76344 1.4e-4,5.435768 2.94029,10.182169 7.3148,12.744442 l 7.45226,27.142006 7.5463,-27.200401 c 4.3188,-2.575871 7.21286,-7.29211 7.213,-12.686047 7e-5,-8.153644 -6.6098,-14.763511 -14.76344,-14.76344 z m 0,3.873665 c 6.01434,-2.04e-4 10.88998,4.875435 10.88977,10.889775 -5e-5,3.513896 -1.66445,6.639029 -4.24787,8.630092 -1.83819,1.416701 -4.14165,2.259251 -6.6419,2.259166 -6.01393,-7.8e-5 -10.88918,-4.875319 -10.88925,-10.889258 -2.1e-4,-6.014141 4.87511,-10.889697 10.88925,-10.889775 z"
       sodipodi:nodetypes="cccccccccsccc"
       inkscape:export-filename="target_marker.png"
       inkscape:export-xdpi="96"
       inkscape:export-ydpi="96" /><path
       id="path5-4-9"
       style="fill:url(#linearGradient10);stroke:#000000;stroke-width:3;stroke-dasharray:none;stroke-opacity:1"
       d="m 183.06645,58.706393 c -8.15344,2.15e-4 -14.76299,6.609998 -14.76292,14.76344 1.4e-4,5.435768 2.94029,10.182169 7.3148,12.744442 l 7.45226,27.142005 7.5463,-27.2004 c 4.3188,-2.575871 7.21286,-7.29211 7.213,-12.686047 7e-5,-8.153644 -6.6098,-14.763511 -14.76344,-14.76344 z m 0,3.873665 c 6.01434,-2.04e-4 10.88998,4.875435 10.88977,10.889775 -5e-5,3.513896 -1.66445,6.639029 -4.24787,8.630092 -1.83819,1.416701 -4.14165,2.259251 -6.6419,2.259166 -6.01393,-7.8e-5 -10.88918,-4.875319 -10.88925,-10.889258 -2.1e-4,-6.014141 4.87511,-10.889697 10.88925,-10.889775 z"
       sodipodi:nodetypes="cccccccccsccc"
       inkscape:export-filename="target_marker_cyan.png"
       inkscape:export-xdpi="96"
       inkscape:export-ydpi="96" /><path
       id="path12"
       style="fill:url(#linearGradient12);stroke:#000000;stroke-width:4.43949;stroke-dasharray:none;stroke-opacity:1"
       sodipodi:type="inkscape:offset"
       inkscape:radius="0"
       inkscape:original="M 93.150391 63.160156 C 87.13625 63.160234 82.259559 68.034687 82.259766 74.048828 C 82.259844 80.062767 87.136452 84.939375 93.150391 84.939453 C 95.650634 84.939538 97.952831 84.096389 99.791016 82.679688 C 102.37445 80.688625 104.03901 77.562724 104.03906 74.048828 C 104.03927 68.034488 99.164731 63.159952 93.150391 63.160156 z "
       d="m 93.150391,63.160156 c -6.014141,7.8e-5 -10.890832,4.874531 -10.890625,10.888672 7.8e-5,6.013939 4.876686,10.890547 10.890625,10.890625 2.500243,8.5e-5 4.80244,-0.843064 6.640625,-2.259765 2.583434,-1.991063 4.247994,-5.116964 4.248044,-8.63086 2.1e-4,-6.01434 -4.874329,-10.888876 -10.888669,-10.888672 z"
       transform="matrix(0.67426002,0,0,0.6772485,30.342488,23.899685)" /><path
       id="path5-8"
       style="fill:#ff0f0f;stroke:#000000;stroke-width:3;stroke-dasharray:none;stroke-opacity:1;fill-opacity:0.94574779"
       d="m 70.641323,175.72617 c -8.153434,2.1e-4 -14.762994,6.61 -14.762923,14.76344 1.43e-4,5.43576 2.940289,10.18217 7.314799,12.74444 l 7.452258,27.14201 7.54631,-27.2004 c 4.318795,-2.57587 7.212856,-7.29213 7.212996,-12.68605 7e-5,-8.15364 -6.609808,-14.76351 -14.76344,-14.76344 z m 0,7.3887 c 4.055225,-1.4e-4 7.341812,3.30154 7.341671,7.37474 -3.4e-5,2.37978 -1.122004,4.49668 -2.863908,5.84512 -1.239414,0.95946 -2.791951,1.5302 -4.477763,1.53014 -4.054955,-5e-5 -7.343168,-3.30233 -7.343221,-7.37526 -1.4e-4,-4.07306 3.28813,-7.37469 7.343221,-7.37474 z"
       inkscape:export-filename="player_marker_v2.png"
       inkscape:export-xdpi="300"
       inkscape:export-ydpi="300" /><path
       id="path5-8-6"
       style="fill:#03fbff;stroke:#000000;stroke-width:3;stroke-dasharray:none;stroke-opacity:1;fill-opacity:0.94509804"
       d="m 116.04899,173.61412 c -8.15343,2.1e-4 -14.76299,6.61 -14.76292,14.76344 1.4e-4,5.43576 2.94029,10.18217 7.3148,12.74444 l 7.45225,27.14201 7.54631,-27.2004 c 4.3188,-2.57587 7.21286,-7.29213 7.213,-12.68605 7e-5,-8.15364 -6.60981,-14.76351 -14.76344,-14.76344 z m 0,7.3887 c 4.05523,-1.4e-4 7.34181,3.30154 7.34167,7.37474 -3e-5,2.37978 -1.122,4.49668 -2.86391,5.84512 -1.23941,0.95946 -2.79195,1.5302 -4.47776,1.53014 -4.05495,-5e-5 -7.34317,-3.30233 -7.34322,-7.37526 -1.4e-4,-4.07306 3.28813,-7.37469 7.34322,-7.37474 z"
       inkscape:export-filename="target_marker_v2.png"
       inkscape:export-xdpi="300"
       inkscape:export-ydpi="300" /></g></svg>
